<svg width="24" height="24" viewBox="0 0 24 24" fill="none" xmlns="http://www.w3.org/2000/svg">
<path fill-rule="evenodd" clip-rule="evenodd" d="M9 3.5H16C16.2761 3.5 16.5 3.72386 16.5 4V6.25C16.5 6.66421 16.8358 7 17.25 7C17.6642 7 18 6.66421 18 6.25V4C18 2.89543 17.1046 2 16 2H6C4.89543 2 4 2.89543 4 4V18.7639C4 19.5215 4.428 20.214 5.10557 20.5528L9.10557 22.5528C10.4354 23.2177 12 22.2507 12 20.7639V20H16C17.1046 20 18 19.1046 18 18V15.75C18 15.3358 17.6642 15 17.25 15C16.8358 15 16.5 15.3358 16.5 15.75V18C16.5 18.2761 16.2761 18.5 16 18.5H12V6.23607C12 5.47852 11.572 4.786 10.8944 4.44721L9 3.5ZM5.5 4.23607V18.7639C5.5 18.9533 5.607 19.1264 5.77639 19.2111L9.77639 21.2111C10.1088 21.3774 10.5 21.1356 10.5 20.7639V6.23607C10.5 6.04668 10.393 5.87355 10.2236 5.78885L6.22361 3.78885C5.89116 3.62263 5.5 3.86438 5.5 4.23607Z" fill="white"/>
<path d="M20 11C20 10.8011 19.921 10.6103 19.7803 10.4697L17.7803 8.46967C17.4874 8.17678 17.0126 8.17678 16.7197 8.46967C16.4268 8.76256 16.4268 9.23744 16.7197 9.53033L17.4393 10.25H14.75C14.3358 10.25 14 10.5858 14 11C14 11.4142 14.3358 11.75 14.75 11.75H17.4393L16.7197 12.4697C16.4268 12.7626 16.4268 13.2374 16.7197 13.5303C17.0126 13.8232 17.4874 13.8232 17.7803 13.5303L19.7803 11.5303C19.7841 11.5266 19.7878 11.5228 19.7915 11.5189C19.9206 11.3842 20 11.2014 20 11Z" fill="white"/>
</svg>
